<svg width="100" height="100" viewBox="0 0 100 100" xmlns="http://www.w3.org/2000/svg">
<path d="M94.2 5.89997C90.1 1.69998 85.5 0.0999756 80.9 0.0999756C75.2 0.0999756 69.8 2.79998 66.2 6.79998C61.6 12 61 17.8 55.8 24C52.7 27.7 47.6 28.2 43.4 28.2C41.3 28.2 39.6 28.1 38.2 28.1C37.5 28.1 37 28.2 36.7 28.3L71.9 63.3C72 63 72 62.6 72 62.1C72 60.8 71.8 58.8 71.8 56.5C71.8 52.3 72.5 47.1 76.4 43.8C82.2 39 88.2 38.3 93.3 33.7C97.3 30.2 100 24.8 100 19.1C100 14.7 98.3 9.99997 94.2 5.89997ZM38.6 78.3H11L4.3 92.1H25.3L38.6 78.3ZM58.1 62.7L52.4 56.6L22.9 86.4C20.2 89.1 16.6 89.1 10.2 89.8C10.8 83.6 10.9 79.9 13.4 77.3L43.1 47.4L37.1 41.7L7.8 71.2C1.3 77.7 1.2 85.7 0 100C14.3 98.8 22.1 98.8 28.7 92.3L58.1 62.7Z" fill="currentColor"/>
</svg>
